<?xml version="1.0" standalone="no"?>
<!DOCTYPE svg PUBLIC "-//W3C//DTD SVG 20010904//EN"
 "http://www.w3.org/TR/2001/REC-SVG-20010904/DTD/svg10.dtd">
<svg version="1.0" xmlns="http://www.w3.org/2000/svg"
 width="20%" height="20%" viewBox="0 0 876.000000 292.000000"
 preserveAspectRatio="xMidYMid meet">
<metadata>
Created by potrace 1.14, written by Peter Selinger 2001-2017
</metadata>
<g transform="translate(0.000000,292.000000) scale(0.100000,-0.100000)"
fill="#1d3182" stroke="none">
<path d="M851 2898 c-22 -35 -642 -1062 -753 -1248 -91 -152 -99 -168 -96
-210 3 -40 7 -47 38 -62 31 -16 70 -18 338 -18 329 0 346 -3 370 -55 7 -14 12
-41 12 -60 0 -18 -90 -291 -200 -605 -111 -314 -203 -586 -207 -603 l-5 -32
24 25 c20 19 772 1154 1027 1549 48 75 52 111 16 146 l-24 25 -360 0 c-309 0
-366 2 -401 16 -45 18 -70 55 -70 104 0 16 72 251 160 521 88 270 160 499 160
510 0 25 -12 24 -29 -3z"/>
<path d="M1645 1142 c-50 -24 -101 -80 -115 -129 -8 -25 -10 -124 -8 -290 l3
-251 30 -44 c43 -62 100 -88 193 -88 79 0 128 18 169 62 30 32 53 90 53 133 0
33 -2 35 -34 35 -32 0 -34 -1 -39 -46 -16 -147 -255 -168 -297 -26 -7 24 -10
123 -8 272 3 217 5 237 23 262 32 42 67 58 132 58 95 0 153 -51 153 -136 0
-33 2 -36 23 -30 12 3 28 6 36 6 23 0 8 93 -22 139 -40 60 -87 84 -176 88 -59
3 -85 0 -116 -15z"/>
<path d="M5747 1143 c-2 -5 24 -114 59 -243 34 -129 82 -306 105 -393 35 -130
45 -157 60 -157 13 0 21 11 28 38 5 20 40 155 77 300 37 145 71 257 74 250 4
-7 40 -143 81 -301 66 -257 76 -287 93 -285 16 3 34 59 122 393 57 215 104
393 104 398 0 4 -14 7 -30 7 -22 0 -33 -6 -40 -22 -5 -13 -37 -131 -70 -263
-34 -132 -66 -257 -71 -279 -6 -21 -13 -35 -17 -31 -4 3 -41 138 -82 298 -66
257 -77 292 -94 292 -18 0 -29 -35 -94 -297 -41 -164 -77 -298 -81 -298 -3 0
-36 118 -74 263 -96 374 -83 337 -117 337 -16 0 -31 -3 -33 -7z"/>
<path d="M7970 751 l0 -401 35 0 35 0 -2 398 -3 397 -32 3 -33 3 0 -400z"/>
<path d="M2215 916 c-37 -17 -80 -62 -94 -99 -6 -16 -11 -99 -11 -186 0 -143
2 -161 23 -201 34 -68 82 -92 179 -88 82 3 111 17 152 72 19 25 21 44 24 209
2 173 1 184 -20 222 -42 74 -168 109 -253 71z m143 -57 c56 -19 62 -40 62
-224 0 -95 -4 -175 -10 -186 -24 -43 -102 -61 -169 -38 -53 19 -61 48 -61 227
0 148 2 161 21 186 35 45 93 58 157 35z"/>
<path d="M2771 919 c-13 -5 -37 -19 -53 -31 l-31 -21 -19 26 c-11 15 -24 27
-29 27 -5 0 -9 -119 -9 -285 l0 -285 35 0 35 0 0 224 0 224 26 31 c43 52 144
54 190 4 24 -26 24 -27 24 -254 l0 -229 35 0 35 0 0 228 c0 216 -1 229 -23
267 -38 68 -142 104 -216 74z"/>
<path d="M3253 911 c-94 -43 -119 -159 -51 -236 23 -27 48 -41 115 -61 120
-38 147 -58 151 -115 2 -37 -1 -49 -23 -69 -23 -22 -36 -25 -97 -25 -66 0 -71
2 -99 33 -21 23 -29 43 -29 68 0 29 -3 35 -16 30 -9 -3 -24 -6 -35 -6 -37 0
-19 -82 29 -134 38 -40 81 -56 154 -56 113 0 178 51 186 146 8 93 -39 140
-183 183 -106 31 -149 88 -114 153 13 24 67 48 109 48 61 0 120 -48 120 -98 0
-21 3 -23 33 -17 17 4 33 8 34 9 1 1 -2 19 -8 39 -13 47 -54 96 -96 113 -46
20 -130 17 -180 -5z"/>
<path d="M4325 914 c-16 -8 -38 -23 -48 -32 -18 -16 -20 -15 -41 11 -12 15
-25 27 -29 27 -4 0 -7 -128 -7 -285 l0 -285 30 0 30 0 0 215 c0 243 5 266 65
291 44 18 79 18 115 -1 55 -29 60 -52 60 -290 l0 -215 30 0 30 0 1 208 c0 133
4 220 12 242 14 39 62 70 112 70 39 0 93 -33 105 -66 6 -14 10 -122 10 -240
l0 -214 30 0 30 0 0 234 c0 225 -1 234 -22 266 -34 49 -71 72 -125 77 -54 6
-111 -17 -147 -56 l-20 -21 -30 29 c-54 52 -132 66 -191 35z"/>
<path d="M5100 907 c-30 -16 -51 -37 -67 -67 -21 -40 -23 -55 -23 -207 0 -184
10 -220 72 -265 28 -20 45 -23 118 -23 73 0 90 3 118 23 18 13 41 41 52 62 23
44 27 100 8 100 -7 0 -23 3 -35 6 -21 6 -23 3 -23 -30 0 -21 -5 -46 -10 -57
-35 -64 -185 -64 -220 0 -5 11 -10 56 -10 100 l0 81 156 0 156 0 -4 93 c-2 80
-7 99 -28 130 -51 76 -172 101 -260 54z m192 -76 c24 -27 28 -40 28 -91 l0
-60 -120 0 -120 0 0 59 c0 94 42 134 134 127 41 -3 55 -9 78 -35z"/>
<path d="M7003 911 c-63 -29 -101 -101 -89 -166 12 -61 58 -101 147 -130 136
-43 159 -61 159 -128 0 -23 -8 -41 -26 -58 -22 -21 -35 -24 -96 -24 -66 0 -71
2 -99 33 -21 23 -29 43 -29 68 0 29 -3 35 -16 30 -9 -3 -24 -6 -35 -6 -37 0
-19 -82 29 -134 38 -40 81 -56 152 -56 113 0 180 51 188 144 8 96 -38 142
-183 185 -81 24 -125 61 -125 105 0 40 17 66 55 82 79 33 162 1 179 -69 9 -36
11 -37 40 -31 17 3 32 7 33 8 1 1 -2 19 -8 39 -13 47 -54 96 -96 113 -46 20
-130 17 -180 -5z"/>
<path d="M7516 907 c-77 -44 -81 -55 -84 -265 -3 -182 -2 -188 20 -221 40 -59
71 -75 153 -79 61 -3 80 -1 112 17 48 27 79 73 88 129 6 38 5 42 -13 42 -11 0
-27 3 -36 6 -13 5 -16 -1 -16 -30 0 -25 -8 -45 -29 -68 -28 -31 -34 -33 -95
-33 -58 0 -69 3 -93 28 -25 25 -28 35 -32 112 l-3 85 162 0 163 0 -5 88 c-9
153 -63 212 -196 212 -40 0 -68 -7 -96 -23z m172 -57 c39 -24 52 -54 52 -121
l0 -49 -125 0 -125 0 0 50 c0 28 7 65 16 81 29 56 121 76 182 39z"/>
<path d="M3680 686 c0 -225 1 -234 23 -266 33 -50 70 -72 126 -78 62 -6 87 1
134 32 l37 25 16 -24 c9 -14 23 -25 30 -25 12 0 14 49 14 285 l0 285 -35 0
-35 0 0 -225 0 -225 -29 -32 c-28 -31 -34 -33 -95 -33 -58 0 -69 3 -93 28
l-28 27 -3 230 -3 230 -30 0 -29 0 0 -234z"/>
<path d="M6670 635 l0 -285 35 0 35 0 0 285 0 285 -35 0 -35 0 0 -285z"/>
<path d="M8150 908 c0 -7 39 -121 86 -253 47 -132 86 -247 86 -255 1 -8 -20
-73 -45 -143 -26 -70 -47 -130 -47 -133 0 -3 14 -4 31 -2 l32 3 106 295 c59
162 124 341 144 398 l36 102 -33 0 -33 0 -74 -215 c-40 -118 -77 -211 -81
-207 -4 4 -32 79 -62 167 -96 281 -84 255 -117 255 -17 0 -29 -5 -29 -12z"/>
</g>
</svg>
